<svg id="Слой_1" data-name="Слой 1" xmlns="http://www.w3.org/2000/svg" viewBox="0 0 102 55"><defs><style>.cls-1{fill:#ccc;}.cls-2{fill:#207195;}</style></defs><circle class="cls-1" cx="58.5" cy="25.5" r="25.5"/><rect class="cls-1" y="33" width="97" height="22" rx="11"/><rect class="cls-1" x="11.86" y="14.51" width="85.14" height="22" rx="11"/><circle class="cls-1" cx="81.5" cy="34.5" r="20.5"/><path class="cls-2" d="M55,66A19.64,19.64,0,0,0,66.07,83.71L56.7,58.05A19.53,19.53,0,0,0,55,66Zm32.9-1a10.42,10.42,0,0,0-1.62-5.42c-1-1.62-1.93-3-1.93-4.6a3.4,3.4,0,0,1,3.3-3.49l.25,0a19.63,19.63,0,0,0-29.67,3.69l1.26,0c2.06,0,5.24-.25,5.24-.25a.81.81,0,0,1,.12,1.61s-1.06.13-2.24.19L69.76,78.1l4.3-12.89L71,56.83c-1.06-.06-2.06-.19-2.06-.19A.81.81,0,0,1,69.06,55s3.24.25,5.17.25S79.47,55,79.47,55a.81.81,0,0,1,.12,1.61s-1.06.13-2.24.19l7.09,21.11,2-6.54A18.22,18.22,0,0,0,87.9,65.05ZM75,67.76,69.09,84.88a19.55,19.55,0,0,0,5.55.8,19.79,19.79,0,0,0,6.52-1.11c0-.09-.1-.18-.14-.27ZM91.87,56.62a14,14,0,0,1,.14,2,18.56,18.56,0,0,1-1.5,7L84.51,83a19.62,19.62,0,0,0,9.77-17A19.43,19.43,0,0,0,91.87,56.62Z" transform="translate(-16 -38)"/></svg>